<?xml version="1.0" standalone="no"?>
<!DOCTYPE svg PUBLIC "-//W3C//DTD SVG 20010904//EN"
 "http://www.w3.org/TR/2001/REC-SVG-20010904/DTD/svg10.dtd">
<svg version="1.0" xmlns="http://www.w3.org/2000/svg"
 width="2000.000000pt" height="1500.000000pt" viewBox="0 0 2000.000000 1500.000000"
 preserveAspectRatio="xMidYMid meet">

<g transform="translate(0.000000,1500.000000) scale(0.100000,-0.100000)"
fill="#000000" stroke="none">
<path d="M10477 12395 c-16 -15 -17 -75 -17 -699 0 -623 1 -685 17 -697 13
-11 101 -15 437 -20 471 -6 476 -7 618 -81 98 -51 197 -134 265 -223 71 -92
147 -248 175 -360 l23 -90 0 -2015 c0 -1952 -1 -2017 -19 -2090 -72 -280 -256
-511 -501 -630 -169 -82 -170 -83 -595 -89 l-374 -6 -13 -25 c-10 -20 -12
-168 -10 -693 2 -655 2 -669 22 -684 29 -22 774 -13 920 11 474 77 865 266
1219 589 335 306 612 781 710 1219 55 245 56 272 55 1548 -1 646 -5 1580 -9
2075 -9 971 -8 953 -66 1199 -75 315 -244 654 -455 913 -325 398 -771 685
-1240 798 -219 52 -277 57 -725 62 -383 5 -422 3 -437 -12z"/>
<path d="M6560 8991 c-6 -13 -10 -247 -10 -691 0 -444 4 -678 10 -691 10 -18
29 -19 705 -19 676 0 695 1 705 19 14 27 14 1355 0 1382 -10 18 -29 19 -705
19 -676 0 -695 -1 -705 -19z"/>
<path d="M6566 5494 c-14 -14 -16 -90 -16 -685 0 -443 4 -677 10 -690 10 -18
25 -19 357 -19 l346 0 -7 -72 c-19 -201 -106 -375 -258 -512 -98 -90 -268
-166 -369 -166 -19 0 -44 -3 -56 -6 l-23 -6 0 -361 0 -360 113 6 c541 29 1058
449 1241 1007 70 216 69 209 74 1071 3 708 2 778 -13 793 -15 14 -81 16 -700
16 -608 0 -685 -2 -699 -16z"/>
</g>
</svg>
